<svg id="Layer_1" data-name="Layer 1" xmlns="http://www.w3.org/2000/svg" viewBox="0 0 667.63 117.81"><path d="M667.63,103.94v82.89H0V115c3.22.25,6.43.6,9.65.72,8.12.31,16.25.72,24.37.7,6.59,0,13.2-.36,19.76-1,11.47-1.09,27.86-1.08,38-6.34,3-1.58,6.58-2.15,9.8-3.42a21,21,0,0,0,3.91-2.64,19.21,19.21,0,0,1,1.68-1.33,71.14,71.14,0,0,0,7.33-4c1.64-1.18,3.15-2.66,3.06-5.27-.07-2.2.73-4.44,1.15-6.66l.92.58a26.8,26.8,0,0,0,2.15-2.75c.94-1.59,1-3.55,4.1-2.16,5,2.2,6.25.95,7.47-4.56a7.07,7.07,0,0,1,3.29-4.46c4.79-2.15,9.69-4.1,15.29-3.15,4.58.79,9.28.9,13.93,1.32a9.84,9.84,0,0,1,2.25.29c5.49,1.9,10.86,4.2,16.46,5.66,2.75.71,5.91.08,8.84-.27,1.61-.19,3.14-1.09,4.72-1.63,1.23-.42,2.46-.84,3.71-1.15,2.22-.56,4.55-1.7,6.68-1.42,5.3.69,10.51,2,15.76,3.14.84.18,1.63.61,2.47.72,1.88.27,2.72,1.06,2.89,3.14.42,5.07,1.13,10.1,1.86,15.13a4,4,0,0,0,1.38,2.6c2.79,1.85,5.76,3.41,8.61,5.16,5.16,3.16,10.72,5.13,16.71,3.69s12-3.64,18-5.56a18.26,18.26,0,0,0,4.48-1.86,5,5,0,0,0,2.07-2.82c.69-3.29,1.05-6.65,1.53-10l.48,0q.77,2.64,1.55,5.28l.65-.06,2-5.74c.72.65,1.32,1,1.3,1.21-.51,5.54,6.57,7.62,6,13.19,0,.27.47.75.82.9,4,1.67,8,3.52,12.13,4.83,2.11.66,4.61,0,6.79.5a21.84,21.84,0,0,1,7,2.87c2.66,1.78,5.09,2.83,8.38,1.81a38.89,38.89,0,0,1,8.83-1.59c3.21-.23,10.65-4.81,11.35-7.92a62.65,62.65,0,0,0,1-9.31c.12-1.53,0-3.08,0-5.27,2.19.66,3.62,1,5,1.52,2.34.87,4.58,1.56,7,0,1.15-.73,2.8-1.69,3.83-1.35,2.26.75,3.77.46,5.36-1.27.39-.42,1.71-.13,2.57,0,1.08.21,2.11.76,3.2.95,3.87.69,7.76,1.28,12,2l1.43-1.6,3,5.64c.37-1.14.59-1.83.81-2.52l1-.1c2.94,5-.22,11.39,3.34,16.78.43-6.42.84-12.4,1.24-18.44,4.17-.09,3,2.94,3.63,5.39l5.52-7.38.68.43c.59,6.67,1.18,13.34,1.76,19.87,4.25-1.78,7.81-3.17,11.27-4.8a3,3,0,0,0,1.08-2.3c.12-4.12-.24-8.27.17-12.35.76-7.66,1.11-7.79,9-7.06,5.17.48,5.17.48,6.08,5.34a3.62,3.62,0,0,0,.39,1.23c3.29,5,4,10.34,2.95,16.18-.55,3,1.38,4.56,4.21,5.29a6,6,0,0,1,3.43,3.25c1.24,3.17,4.21,5.72,7.61,5.61A292.49,292.49,0,0,1,504,118c3.05.36,6.23-.43,9.35-.65,1.06-.08,2.15.06,3.2-.08,4.78-.61,9.59-1.15,14.33-2,1.83-.33,3.53-1.44,5.27-2.22a25.84,25.84,0,0,0,4-2c2.66-1.81,5-4.4,7.86-5.54,2.47-1,4.34-2,5.73-4.24.7-1.15,2.23-2.6,3.34-2.56,3.71.13,4-2.07,4-4.76,0-1.51-.29-3-.16-4.53a80.28,80.28,0,0,1,1.33-10.87c.77-3.29,4.64-5.24,7-4.47l2.83-2a13.61,13.61,0,0,1,.87,3.17c.11,3.5,0,7,0,10.7,5.27-1,7.71,3.17,10.61,5.59,1.68,1.4,1.28,5.29,1.66,7.25,2.24,1.57,4.16,2.79,5.94,4.2,4,3.14,7,7.81,12.82,7.86,3.47,0,6.75,2.63,10.42.43,1.87-1.12,3.74-.37,5.13,1.47a2.4,2.4,0,0,0,1.89.73c7.64-.8,15.27-1.63,22.89-2.58,1.33-.17,2.56-1.06,3.89-1.41,3.8-1,7.66-1.81,11.45-2.87C662.39,105.88,665,104.84,667.63,103.94Z" transform="translate(0 -69.01)"/></svg>